ISO-10303-21;
HEADER;
FILE_DESCRIPTION(('ViewDefinition[DesignTransferView]'),'2;1');
FILE_NAME('casa_com_telhado_fixed.ifc','2026-04-09T18:47:15-03:00',(''),(''),'IfcOpenShell 0.8.4','Bonsai 0.8.4','Nobody');
FILE_SCHEMA(('IFC4'));
ENDSEC;
DATA;
#1=IFCPROJECT('2jyCXlc293sRu5ssR9m85C',$,'House Project',$,$,$,$,(#10),#5);
#2=IFCSIUNIT(*,.LENGTHUNIT.,.MILLI.,.METRE.);
#3=IFCSIUNIT(*,.AREAUNIT.,$,.SQUARE_METRE.);
#4=IFCSIUNIT(*,.VOLUMEUNIT.,$,.CUBIC_METRE.);
#5=IFCUNITASSIGNMENT((#3,#4,#2));
#6=IFCCARTESIANPOINT((0.,0.,0.));
#7=IFCDIRECTION((0.,0.,1.));
#8=IFCDIRECTION((1.,0.,0.));
#9=IFCAXIS2PLACEMENT3D(#6,#7,#8);
#10=IFCGEOMETRICREPRESENTATIONCONTEXT($,'Model',3,1.E-05,#9,$);
#11=IFCGEOMETRICREPRESENTATIONSUBCONTEXT('Body','Model',*,*,*,*,#10,$,.MODEL_VIEW.,$);
#12=IFCSITE('17GgFAzIT3jgpyCG6jFr49',$,'Site',$,$,$,$,$,$,$,$,$,$,$);
#13=IFCBUILDING('0uBpspvsn8xQGHjeqfPz7y',$,'Building',$,$,$,$,$,$,$,$,$);
#14=IFCBUILDINGSTOREY('2Db0ovm1T5_hgZcKPar_s$',$,'Ground Floor',$,$,$,$,$,$,$);
#15=IFCRELAGGREGATES('3GtDj5p_fD9OZ6E73IWqEu',$,$,$,#1,(#12));
#16=IFCRELAGGREGATES('12VptmPFDFGRkk3Uus4ylr',$,$,$,#12,(#13));
#17=IFCRELAGGREGATES('0VKagtgdn4xPxz8c$v_lQE',$,$,$,#13,(#14));
#18=IFCWALL('0YC8jnEkb5mRYZRhQl2SuW',$,$,$,$,#40,#29,$,$);
#19=IFCCARTESIANPOINTLIST2D(((0.,0.),(0.,200.),(10000.,200.),(10000.,0.),(0.,0.)));
#20=IFCINDEXEDPOLYCURVE(#19,$,.F.);
#21=IFCDIRECTION((0.,0.,1.));
#22=IFCARBITRARYCLOSEDPROFILEDEF(.AREA.,$,#20);
#23=IFCCARTESIANPOINT((0.,0.,0.));
#24=IFCDIRECTION((0.,0.,1.));
#25=IFCDIRECTION((1.,0.,0.));
#26=IFCAXIS2PLACEMENT3D(#23,#24,#25);
#27=IFCEXTRUDEDAREASOLID(#22,#26,#21,3000.);
#28=IFCSHAPEREPRESENTATION(#11,'Body','SweptSolid',(#27));
#29=IFCPRODUCTDEFINITIONSHAPE($,$,(#28));
#35=IFCRELCONTAINEDINSPATIALSTRUCTURE('1yhs4UDebBT9oYO4mXX$TD',$,$,$,(#41,#85,#63,#107,#125,#18),#14);
#36=IFCCARTESIANPOINT((0.,0.,0.));
#37=IFCDIRECTION((0.,0.,1.));
#38=IFCDIRECTION((1.,0.,0.));
#39=IFCAXIS2PLACEMENT3D(#36,#37,#38);
#40=IFCLOCALPLACEMENT($,#39);
#41=IFCWALL('3_r3V$DUvDDRs$_$rNpBHo',$,$,$,$,#62,#52,$,$);
#42=IFCCARTESIANPOINTLIST2D(((0.,0.),(0.,200.),(10000.,200.),(10000.,0.),(0.,0.)));
#43=IFCINDEXEDPOLYCURVE(#42,$,.F.);
#44=IFCDIRECTION((0.,0.,1.));
#45=IFCARBITRARYCLOSEDPROFILEDEF(.AREA.,$,#43);
#46=IFCCARTESIANPOINT((0.,0.,0.));
#47=IFCDIRECTION((0.,0.,1.));
#48=IFCDIRECTION((1.,0.,0.));
#49=IFCAXIS2PLACEMENT3D(#46,#47,#48);
#50=IFCEXTRUDEDAREASOLID(#45,#49,#44,3000.);
#51=IFCSHAPEREPRESENTATION(#11,'Body','SweptSolid',(#50));
#52=IFCPRODUCTDEFINITIONSHAPE($,$,(#51));
#58=IFCCARTESIANPOINT((10000.,0.,0.));
#59=IFCDIRECTION((0.,0.,1.));
#60=IFCDIRECTION((6.12323399573677E-17,1.,0.));
#61=IFCAXIS2PLACEMENT3D(#58,#59,#60);
#62=IFCLOCALPLACEMENT($,#61);
#63=IFCWALL('3bT_49Qzv3EP$noMXPlgmn',$,$,$,$,#84,#74,$,$);
#64=IFCCARTESIANPOINTLIST2D(((0.,0.),(0.,200.),(10000.,200.),(10000.,0.),(0.,0.)));
#65=IFCINDEXEDPOLYCURVE(#64,$,.F.);
#66=IFCDIRECTION((0.,0.,1.));
#67=IFCARBITRARYCLOSEDPROFILEDEF(.AREA.,$,#65);
#68=IFCCARTESIANPOINT((0.,0.,0.));
#69=IFCDIRECTION((0.,0.,1.));
#70=IFCDIRECTION((1.,0.,0.));
#71=IFCAXIS2PLACEMENT3D(#68,#69,#70);
#72=IFCEXTRUDEDAREASOLID(#67,#71,#66,3000.);
#73=IFCSHAPEREPRESENTATION(#11,'Body','SweptSolid',(#72));
#74=IFCPRODUCTDEFINITIONSHAPE($,$,(#73));
#80=IFCCARTESIANPOINT((10000.,10000.,0.));
#81=IFCDIRECTION((0.,0.,1.));
#82=IFCDIRECTION((-1.,1.22464679914735E-16,0.));
#83=IFCAXIS2PLACEMENT3D(#80,#81,#82);
#84=IFCLOCALPLACEMENT($,#83);
#85=IFCWALL('2TGjWPTsrDU9XbJYv4UtsT',$,$,$,$,#106,#96,$,$);
#86=IFCCARTESIANPOINTLIST2D(((0.,0.),(0.,200.),(10000.,200.),(10000.,0.),(0.,0.)));
#87=IFCINDEXEDPOLYCURVE(#86,$,.F.);
#88=IFCDIRECTION((0.,0.,1.));
#89=IFCARBITRARYCLOSEDPROFILEDEF(.AREA.,$,#87);
#90=IFCCARTESIANPOINT((0.,0.,0.));
#91=IFCDIRECTION((0.,0.,1.));
#92=IFCDIRECTION((1.,0.,0.));
#93=IFCAXIS2PLACEMENT3D(#90,#91,#92);
#94=IFCEXTRUDEDAREASOLID(#89,#93,#88,3000.);
#95=IFCSHAPEREPRESENTATION(#11,'Body','SweptSolid',(#94));
#96=IFCPRODUCTDEFINITIONSHAPE($,$,(#95));
#102=IFCCARTESIANPOINT((0.,10000.,0.));
#103=IFCDIRECTION((0.,0.,1.));
#104=IFCDIRECTION((6.12323399573677E-17,-1.,0.));
#105=IFCAXIS2PLACEMENT3D(#102,#103,#104);
#106=IFCLOCALPLACEMENT($,#105);
#107=IFCSLAB('3m2RcWGvr6I9c_4Z4Zn8vA',$,$,$,$,#124,#114,$,$);
#108=IFCCARTESIANPOINTLIST2D(((0.,0.),(10000.,0.),(10000.,10000.),(0.,10000.)));
#109=IFCINDEXEDPOLYCURVE(#108,$,$);
#110=IFCDIRECTION((0.,0.,1.));
#111=IFCARBITRARYCLOSEDPROFILEDEF(.AREA.,$,#109);
#112=IFCEXTRUDEDAREASOLID(#111,$,#110,200.);
#113=IFCSHAPEREPRESENTATION(#11,'Body','SweptSolid',(#112));
#114=IFCPRODUCTDEFINITIONSHAPE($,$,(#113));
#120=IFCCARTESIANPOINT((0.,0.,0.));
#121=IFCDIRECTION((0.,0.,1.));
#122=IFCDIRECTION((1.,0.,0.));
#123=IFCAXIS2PLACEMENT3D(#120,#121,#122);
#124=IFCLOCALPLACEMENT($,#123);
#125=IFCROOF('0miDtT9aLAM9gFHkn7nl_h',$,$,$,$,#148,#138,$,$);
#126=IFCCARTESIANPOINT((0.,0.));
#127=IFCCARTESIANPOINT((5.,2.));
#128=IFCCARTESIANPOINT((10.,0.));
#129=IFCPOLYLINE((#126,#127,#128,#126));
#130=IFCARBITRARYCLOSEDPROFILEDEF(.AREA.,$,#129);
#131=IFCCARTESIANPOINT((0.,0.,0.));
#132=IFCDIRECTION((0.,0.,1.));
#133=IFCDIRECTION((1.,0.,0.));
#134=IFCAXIS2PLACEMENT3D(#131,#132,#133);
#135=IFCDIRECTION((0.,1.,0.));
#136=IFCEXTRUDEDAREASOLID(#130,#134,#135,10.);
#137=IFCSHAPEREPRESENTATION(#11,'Body','SweptSolid',(#136));
#138=IFCPRODUCTDEFINITIONSHAPE($,$,(#137));
#144=IFCCARTESIANPOINT((0.,0.,3000.));
#145=IFCDIRECTION((0.,0.,1.));
#146=IFCDIRECTION((1.,0.,0.));
#147=IFCAXIS2PLACEMENT3D(#144,#145,#146);
#148=IFCLOCALPLACEMENT($,#147);
#149=IFCOPENINGELEMENT('3Y6C_Jhr12Nwt39VbR92f3',$,'Unnamed',$,$,#171,#160,$,.OPENING.);
#150=IFCCARTESIANPOINTLIST2D(((0.,0.),(499.999969482422,0.),(499.999969482422,499.999969482422),(0.,499.999969482422)));
#151=IFCINDEXEDPOLYCURVE(#150,(IFCLINEINDEX((1,2,3,4,1))),$);
#152=IFCARBITRARYCLOSEDPROFILEDEF(.AREA.,$,#151);
#153=IFCCARTESIANPOINT((0.,0.,0.));
#154=IFCDIRECTION((0.,0.,1.));
#155=IFCDIRECTION((1.,0.,0.));
#156=IFCAXIS2PLACEMENT3D(#153,#154,#155);
#157=IFCDIRECTION((0.,0.,1.));
#158=IFCEXTRUDEDAREASOLID(#152,#156,#157,500.);
#159=IFCSHAPEREPRESENTATION(#11,'Body','SweptSolid',(#158));
#160=IFCPRODUCTDEFINITIONSHAPE($,$,(#159));
#161=IFCRELVOIDSELEMENT('0yf8HicSP5EPhuQNcTXFhV',$,$,$,#63,#149);
#167=IFCCARTESIANPOINT((10000.,10000.,0.));
#168=IFCDIRECTION((0.,0.,1.));
#169=IFCDIRECTION((-1.,-1.22464679914735E-16,0.));
#170=IFCAXIS2PLACEMENT3D(#167,#168,#169);
#171=IFCLOCALPLACEMENT(#84,#170);
#172=IFCOPENINGELEMENT('22b0f4sbH9jwgUmFUov7jY',$,'Unnamed',$,$,#194,#183,$,.OPENING.);
#173=IFCCARTESIANPOINTLIST2D(((0.,0.),(499.999969482422,0.),(499.999969482422,499.999969482422),(0.,499.999969482422)));
#174=IFCINDEXEDPOLYCURVE(#173,(IFCLINEINDEX((1,2,3,4,1))),$);
#175=IFCARBITRARYCLOSEDPROFILEDEF(.AREA.,$,#174);
#176=IFCCARTESIANPOINT((0.,0.,0.));
#177=IFCDIRECTION((0.,0.,1.));
#178=IFCDIRECTION((1.,0.,0.));
#179=IFCAXIS2PLACEMENT3D(#176,#177,#178);
#180=IFCDIRECTION((0.,0.,1.));
#181=IFCEXTRUDEDAREASOLID(#175,#179,#180,500.);
#182=IFCSHAPEREPRESENTATION(#11,'Body','SweptSolid',(#181));
#183=IFCPRODUCTDEFINITIONSHAPE($,$,(#182));
#184=IFCRELVOIDSELEMENT('2GsNQc7HTDAAqK$_03j9uM',$,$,$,#63,#172);
#190=IFCCARTESIANPOINT((10000.,10000.,0.));
#191=IFCDIRECTION((0.,0.,1.));
#192=IFCDIRECTION((-1.,-1.22464679914735E-16,0.));
#193=IFCAXIS2PLACEMENT3D(#190,#191,#192);
#194=IFCLOCALPLACEMENT(#84,#193);
#195=IFCOPENINGELEMENT('0075lILZz2iwj2hJWBHpGT',$,'Unnamed',$,$,#217,#206,$,.OPENING.);
#196=IFCCARTESIANPOINTLIST2D(((0.,0.),(499.999969482422,0.),(499.999969482422,499.999969482422),(0.,499.999969482422)));
#197=IFCINDEXEDPOLYCURVE(#196,(IFCLINEINDEX((1,2,3,4,1))),$);
#198=IFCARBITRARYCLOSEDPROFILEDEF(.AREA.,$,#197);
#199=IFCCARTESIANPOINT((0.,0.,0.));
#200=IFCDIRECTION((0.,0.,1.));
#201=IFCDIRECTION((1.,0.,0.));
#202=IFCAXIS2PLACEMENT3D(#199,#200,#201);
#203=IFCDIRECTION((0.,0.,1.));
#204=IFCEXTRUDEDAREASOLID(#198,#202,#203,500.);
#205=IFCSHAPEREPRESENTATION(#11,'Body','SweptSolid',(#204));
#206=IFCPRODUCTDEFINITIONSHAPE($,$,(#205));
#207=IFCRELVOIDSELEMENT('2L_5RPE0P2NgHt6uMmEkfE',$,$,$,#41,#195);
#213=IFCCARTESIANPOINT((-6.12323399573677E-13,10000.,0.));
#214=IFCDIRECTION((0.,0.,1.));
#215=IFCDIRECTION((6.12323399573677E-17,-1.,0.));
#216=IFCAXIS2PLACEMENT3D(#213,#214,#215);
#217=IFCLOCALPLACEMENT(#62,#216);
ENDSEC;
END-ISO-10303-21;
